<svg id="visual" viewBox="0 0 900 600" width="100%" height="100%" xmlns="http://www.w3.org/2000/svg" xmlns:xlink="http://www.w3.org/1999/xlink" version="1.1"><rect x="0" y="0" width="900" height="600" fill="#001220"></rect><path d="M0 396L21.5 402.2C43 408.3 86 420.7 128.8 415.5C171.7 410.3 214.3 387.7 257.2 376.8C300 366 343 367 385.8 380.8C428.7 394.7 471.3 421.3 514.2 430.2C557 439 600 430 642.8 422.8C685.7 415.7 728.3 410.3 771.2 401.7C814 393 857 381 878.5 375L900 369L900 601L878.5 601C857 601 814 601 771.2 601C728.3 601 685.7 601 642.8 601C600 601 557 601 514.2 601C471.3 601 428.7 601 385.8 601C343 601 300 601 257.2 601C214.3 601 171.7 601 128.8 601C86 601 43 601 21.5 601L0 601Z" fill="#af79ff"></path><path d="M0 420L21.5 416.2C43 412.3 86 404.7 128.8 405.7C171.7 406.7 214.3 416.3 257.2 421.7C300 427 343 428 385.8 428.3C428.7 428.7 471.3 428.3 514.2 425.3C557 422.3 600 416.7 642.8 418.2C685.7 419.7 728.3 428.3 771.2 438C814 447.7 857 458.3 878.5 463.7L900 469L900 601L878.5 601C857 601 814 601 771.2 601C728.3 601 685.7 601 642.8 601C600 601 557 601 514.2 601C471.3 601 428.7 601 385.8 601C343 601 300 601 257.2 601C214.3 601 171.7 601 128.8 601C86 601 43 601 21.5 601L0 601Z" fill="#8775ea"></path><path d="M0 447L21.5 455.5C43 464 86 481 128.8 487C171.7 493 214.3 488 257.2 481.3C300 474.7 343 466.3 385.8 463.2C428.7 460 471.3 462 514.2 462.8C557 463.7 600 463.3 642.8 467.2C685.7 471 728.3 479 771.2 479.7C814 480.3 857 473.7 878.5 470.3L900 467L900 601L878.5 601C857 601 814 601 771.2 601C728.3 601 685.7 601 642.8 601C600 601 557 601 514.2 601C471.3 601 428.7 601 385.8 601C343 601 300 601 257.2 601C214.3 601 171.7 601 128.8 601C86 601 43 601 21.5 601L0 601Z" fill="#636fd2"></path><path d="M0 530L21.5 524C43 518 86 506 128.8 507.8C171.7 509.7 214.3 525.3 257.2 532.5C300 539.7 343 538.3 385.8 534.8C428.7 531.3 471.3 525.7 514.2 517.2C557 508.7 600 497.3 642.8 500.5C685.7 503.7 728.3 521.3 771.2 525.3C814 529.3 857 519.7 878.5 514.8L900 510L900 601L878.5 601C857 601 814 601 771.2 601C728.3 601 685.7 601 642.8 601C600 601 557 601 514.2 601C471.3 601 428.7 601 385.8 601C343 601 300 601 257.2 601C214.3 601 171.7 601 128.8 601C86 601 43 601 21.5 601L0 601Z" fill="#4566b7"></path><path d="M0 568L21.5 561.8C43 555.7 86 543.3 128.8 543.8C171.7 544.3 214.3 557.7 257.2 557.2C300 556.7 343 542.3 385.8 537.3C428.7 532.3 471.3 536.7 514.2 543C557 549.3 600 557.7 642.8 561.8C685.7 566 728.3 566 771.2 565C814 564 857 562 878.5 561L900 560L900 601L878.5 601C857 601 814 601 771.2 601C728.3 601 685.7 601 642.8 601C600 601 557 601 514.2 601C471.3 601 428.7 601 385.8 601C343 601 300 601 257.2 601C214.3 601 171.7 601 128.8 601C86 601 43 601 21.5 601L0 601Z" fill="#305c9a"></path></svg>