<svg id="visual" viewBox="0 0 1920 1080" height="100%" width="100%" xmlns="http://www.w3.org/2000/svg" xmlns:xlink="http://www.w3.org/1999/xlink" version="1.1"><rect x="0" y="0" width="1920" height="1080" fill="#305C9A"></rect>
<path className="wave1" d="M0 613L21.3 619.5C42.7 626 85.3 639 128 637.5C170.7 636 213.3 620 256 602.5C298.7 585 341.3 566 384 558C426.7 550 469.3 553 512 552.5C554.7 552 597.3 548 640 550C682.7 552 725.3 560 768 559.7C810.7 559.3 853.3 550.7 896 551.8C938.7 553 981.3 564 1024 583.3C1066.7 602.7 1109.3 630.3 1152 630.7C1194.7 631 1237.3 604 1280 600.8C1322.7 597.7 1365.3 618.3 1408 625.2C1450.7 632 1493.3 625 1536 622.3C1578.7 619.7 1621.3 621.3 1664 610.3C1706.7 599.3 1749.3 575.7 1792 568.5C1834.7 561.3 1877.3 570.7 1898.7 575.3L1920 580L1920 1081L1898.7 1081C1877.3 1081 1834.7 1081 1792 1081C1749.3 1081 1706.7 1081 1664 1081C1621.3 1081 1578.7 1081 1536 1081C1493.3 1081 1450.7 1081 1408 1081C1365.3 1081 1322.7 1081 1280 1081C1237.3 1081 1194.7 1081 1152 1081C1109.3 1081 1066.7 1081 1024 1081C981.3 1081 938.7 1081 896 1081C853.3 1081 810.7 1081 768 1081C725.3 1081 682.7 1081 640 1081C597.3 1081 554.7 1081 512 1081C469.3 1081 426.7 1081 384 1081C341.3 1081 298.7 1081 256 1081C213.3 1081 170.7 1081 128 1081C85.3 1081 42.7 1081 21.3 1081L0 1081Z" fill="#ffe4aa"></path>

<path className="wave2" d="M0 636L21.3 645.7C42.7 655.3 85.3 674.7 128 686.5C170.7 698.3 213.3 702.7 256 699.8C298.7 697 341.3 687 384 689.7C426.7 692.3 469.3 707.7 512 710.5C554.7 713.3 597.3 703.7 640 698.7C682.7 693.7 725.3 693.3 768 684.5C810.7 675.7 853.3 658.3 896 664C938.7 669.7 981.3 698.3 1024 717.5C1066.7 736.7 1109.3 746.3 1152 750.7C1194.7 755 1237.3 754 1280 746.7C1322.7 739.3 1365.3 725.7 1408 717C1450.7 708.3 1493.3 704.7 1536 702.7C1578.7 700.7 1621.3 700.3 1664 690.7C1706.7 681 1749.3 662 1792 663.3C1834.7 664.7 1877.3 686.3 1898.7 697.2L1920 708L1920 1081L1898.7 1081C1877.3 1081 1834.7 1081 1792 1081C1749.3 1081 1706.7 1081 1664 1081C1621.3 1081 1578.7 1081 1536 1081C1493.3 1081 1450.7 1081 1408 1081C1365.3 1081 1322.7 1081 1280 1081C1237.3 1081 1194.7 1081 1152 1081C1109.3 1081 1066.7 1081 1024 1081C981.3 1081 938.7 1081 896 1081C853.3 1081 810.7 1081 768 1081C725.3 1081 682.7 1081 640 1081C597.3 1081 554.7 1081 512 1081C469.3 1081 426.7 1081 384 1081C341.3 1081 298.7 1081 256 1081C213.3 1081 170.7 1081 128 1081C85.3 1081 42.7 1081 21.3 1081L0 1081Z" fill="#ffbb97"></path>

<path className="wave3" d="M0 815L21.3 807.5C42.7 800 85.3 785 128 780.5C170.7 776 213.3 782 256 787.5C298.7 793 341.3 798 384 797.8C426.7 797.7 469.3 792.3 512 784.3C554.7 776.3 597.3 765.7 640 762.8C682.7 760 725.3 765 768 771.3C810.7 777.7 853.3 785.3 896 781.5C938.7 777.7 981.3 762.3 1024 764C1066.7 765.7 1109.3 784.3 1152 794.2C1194.7 804 1237.3 805 1280 804.8C1322.7 804.7 1365.3 803.3 1408 801C1450.7 798.7 1493.3 795.3 1536 785.2C1578.7 775 1621.3 758 1664 755.7C1706.7 753.3 1749.3 765.7 1792 765.2C1834.7 764.7 1877.3 751.3 1898.7 744.7L1920 738L1920 1081L1898.7 1081C1877.3 1081 1834.7 1081 1792 1081C1749.3 1081 1706.7 1081 1664 1081C1621.3 1081 1578.7 1081 1536 1081C1493.3 1081 1450.7 1081 1408 1081C1365.3 1081 1322.7 1081 1280 1081C1237.3 1081 1194.7 1081 1152 1081C1109.3 1081 1066.7 1081 1024 1081C981.3 1081 938.7 1081 896 1081C853.3 1081 810.7 1081 768 1081C725.3 1081 682.7 1081 640 1081C597.3 1081 554.7 1081 512 1081C469.3 1081 426.7 1081 384 1081C341.3 1081 298.7 1081 256 1081C213.3 1081 170.7 1081 128 1081C85.3 1081 42.7 1081 21.3 1081L0 1081Z" fill="#ff94a0"></path>

<path className="wave4" d="M0 909L21.3 902.7C42.7 896.3 85.3 883.7 128 874.7C170.7 865.7 213.3 860.3 256 860.2C298.7 860 341.3 865 384 868.5C426.7 872 469.3 874 512 882C554.7 890 597.3 904 640 904.2C682.7 904.3 725.3 890.7 768 889C810.7 887.3 853.3 897.7 896 905.2C938.7 912.7 981.3 917.3 1024 915.5C1066.7 913.7 1109.3 905.3 1152 904.7C1194.7 904 1237.3 911 1280 904.2C1322.7 897.3 1365.3 876.7 1408 866.3C1450.7 856 1493.3 856 1536 865.7C1578.7 875.3 1621.3 894.7 1664 892.8C1706.7 891 1749.3 868 1792 863.2C1834.7 858.3 1877.3 871.7 1898.7 878.3L1920 885L1920 1081L1898.7 1081C1877.3 1081 1834.7 1081 1792 1081C1749.3 1081 1706.7 1081 1664 1081C1621.3 1081 1578.7 1081 1536 1081C1493.3 1081 1450.7 1081 1408 1081C1365.3 1081 1322.7 1081 1280 1081C1237.3 1081 1194.7 1081 1152 1081C1109.3 1081 1066.7 1081 1024 1081C981.3 1081 938.7 1081 896 1081C853.3 1081 810.7 1081 768 1081C725.3 1081 682.7 1081 640 1081C597.3 1081 554.7 1081 512 1081C469.3 1081 426.7 1081 384 1081C341.3 1081 298.7 1081 256 1081C213.3 1081 170.7 1081 128 1081C85.3 1081 42.7 1081 21.3 1081L0 1081Z" fill="#f578c6"></path>

<path className="wave5" d="M0 994L21.3 994.8C42.7 995.7 85.3 997.3 128 992C170.7 986.7 213.3 974.3 256 964.7C298.7 955 341.3 948 384 943.2C426.7 938.3 469.3 935.7 512 936.5C554.7 937.3 597.3 941.7 640 951.8C682.7 962 725.3 978 768 984.7C810.7 991.3 853.3 988.7 896 984.3C938.7 980 981.3 974 1024 976.2C1066.7 978.3 1109.3 988.7 1152 983.5C1194.7 978.3 1237.3 957.7 1280 946C1322.7 934.3 1365.3 931.7 1408 941.5C1450.7 951.3 1493.3 973.7 1536 979.3C1578.7 985 1621.3 974 1664 969.7C1706.7 965.3 1749.3 967.7 1792 969.3C1834.7 971 1877.3 972 1898.7 972.5L1920 973L1920 1081L1898.7 1081C1877.3 1081 1834.7 1081 1792 1081C1749.3 1081 1706.7 1081 1664 1081C1621.3 1081 1578.7 1081 1536 1081C1493.3 1081 1450.7 1081 1408 1081C1365.3 1081 1322.7 1081 1280 1081C1237.3 1081 1194.7 1081 1152 1081C1109.3 1081 1066.7 1081 1024 1081C981.3 1081 938.7 1081 896 1081C853.3 1081 810.7 1081 768 1081C725.3 1081 682.7 1081 640 1081C597.3 1081 554.7 1081 512 1081C469.3 1081 426.7 1081 384 1081C341.3 1081 298.7 1081 256 1081C213.3 1081 170.7 1081 128 1081C85.3 1081 42.7 1081 21.3 1081L0 1081Z" fill="#af79ff">

</path></svg>